# xmcd CD database file
#
# Track frame offsets:
#	150
#	17176
#	31038
#	47614
#	68917
#	91470
#	103999
#	119353
#	136452
#	152655
#	169905
#	182808
#	200626
#	216551
#	233352
#	258167
#
# Disc length: 3704 seconds
#
# Revision: 0
# Processed by: cddbd v1.5.2PL0 Copyright (c) Steve Scherf et al.
# Submitted via: jetAudio 7
#
DISCID=e10e7610
DTITLE=Juanita du Plessis - Ek en Jy
DYEAR=2001
DGENRE=Rock
TTITLE0=I'll Show You What's Right
TTITLE1=Hey There,Hi There
TTITLE2=Ek en Jy
TTITLE3=A Letter To Daddy
TTITLE4=Afrikaanse Medley .Ek Lewe.Hoog Bo Die Wolke.In Die Middel
TTITLE5=I'm Crazy For You
TTITLE6=Gimme Your Love
TTITLE7=Don't You Let It Slip Away
TTITLE8=Kan Jy Nie
TTITLE9=I Will Give Everyting
TTITLE10=Jambalaya
TTITLE11=As Jy Eendag Van My Hou
TTITLE12=I'm All Right
TTITLE13=Hier By My
TTITLE14=Engelse Medley.I Just Can't Get Enough.Witchdoctor.To Times
TTITLE15=Ska-Rumba
EXTD=YEAR: 2001  ID3G:  17
EXTT0=
EXTT1=
EXTT2=
EXTT3=
EXTT4=
EXTT5=
EXTT6=
EXTT7=
EXTT8=
EXTT9=
EXTT10=
EXTT11=
EXTT12=
EXTT13=
EXTT14=
EXTT15=
PLAYORDER=
